HIERARCHY
ROOT Hips
{
	OFFSET 0.000000 0.000000 0.000000 
	CHANNELS 6 Xposition Yposition Zposition Yrotation Zrotation Xrotation 
	JOINT Lumbar
	{
		OFFSET 0.000000 0.000000 0.000000 
		CHANNELS 3 Zrotation Xrotation Yrotation
		JOINT Neck
		{
			OFFSET 0.000000 0.445665 0.000000 
			CHANNELS 3 Zrotation Xrotation Yrotation
			End Site
			{
				OFFSET 0.000000 0.227535 0.000000 
			}
		}
		JOINT RightShoulder
		{
			OFFSET 0.019635 0.377685 0.194865 
			CHANNELS 3 Zrotation Xrotation Yrotation
			JOINT RightElbow
			{
				OFFSET 0.000000 -0.243375 0.000000 
				CHANNELS 2 Zrotation Yrotation
				JOINT RightWrist
				{
					OFFSET 0.000000 -0.264825 0.000000 
					CHANNELS 2 Zrotation Xrotation
					End Site
					{
						OFFSET 0.006600 -0.176220 0.000990 
					}
				}
			}
		}
		JOINT LeftShoulder
		{
			OFFSET 0.019635 0.377685 -0.194865 
			CHANNELS 3 Zrotation Xrotation Yrotation
			JOINT LeftElbow
			{
				OFFSET 0.000000 -0.243375 0.000000 
				CHANNELS 2 Zrotation Yrotation
				JOINT LeftWrist
				{
					OFFSET 0.000000 -0.264825 0.000000 
					CHANNELS 2 Zrotation Xrotation
					End Site
					{
						OFFSET 0.006600 -0.176220 -0.000990 
					}
				}
			}
		}
	}
	JOINT RightHip
	{
		OFFSET 0.052140 -0.069960 0.075570 
		CHANNELS 3 Zrotation Xrotation Yrotation
		JOINT RightKnee
		{
			OFFSET 0.000000 -0.402270 0.000000 
			CHANNELS 1 Zrotation
			JOINT RightAnkle
			{
				OFFSET 0.000000 -0.404085 0.000000 
				CHANNELS 3 Zrotation Xrotation Yrotation
				End Site
				{
					OFFSET 0.204105 -0.089430 0.008415 
				}
			}
		}
	}
	JOINT LeftHip
	{
		OFFSET 0.052140 -0.069960 -0.075570 
		CHANNELS 3 Zrotation Xrotation Yrotation
		JOINT LeftKnee
		{
			OFFSET 0.000000 -0.402270 0.000000 
			CHANNELS 1 Zrotation
			JOINT LeftAnkle
			{
				OFFSET 0.000000 -0.404085 0.000000 
				CHANNELS 3 Zrotation Xrotation Yrotation
				End Site
				{
					OFFSET 0.204105 -0.089430 -0.008415 
				}
			}
		}
	}
}
MOTION
Frames: 26
Frame Time: 0.02
0.06062 0.96403 0.5848 -214.99882 0 5.47541 6.72393 -2.39159 0.35227 -37.49109 5.63675 6.98805 9.21219 -16.22452 -32.97839 87.59397 87.78519 8.0318 -0.71302 16.28524 2.22019 25.90698 76.67136 -47.55214 -12.1475 -5.57813 -4.84085 3.04123 2.2429 -34.81988 14.77182 0.45152 2.49007 11.25612 -11.26842 0.58018 -12.46098 -1.07052 4.39196 13.48061
0.04956 0.96362 0.5814 -214.88773 0 5.96957 6.85271 -2.61613 0.80815 -36.37193 4.92124 6.62784 10.53507 -16.34487 -34.99437 83.6143 87.07851 7.17805 -0.94477 17.61641 3.85517 28.75831 72.36533 -49.34612 -11.70924 -5.31179 -3.63223 1.43409 0.55586 -38.00023 13.73827 1.22574 4.46099 10.64459 -11.67377 3.32395 -12.57028 -0.52596 3.87318 10.73558
0.03874 0.96278 0.57851 -214.74507 0 6.50005 6.96067 -2.82802 1.2346 -35.13709 4.02047 6.20068 12.12894 -16.4399 -37.08637 78.65588 86.06718 6.24229 -1.3223 19.15351 5.87967 31.62216 67.13985 -50.85127 -11.4108 -5.07121 -2.09764 -0.42467 -1.37349 -41.67034 12.44175 1.83274 6.67946 10.08914 -12.02331 7.00884 -12.7729 0.18631 3.22387 7.08913
0.02788 0.96211 0.57542 -214.62906 0 7.02173 7.07123 -3.04991 1.68994 -33.95735 3.19153 5.79385 13.62004 -16.56349 -39.13639 74.05102 85.20633 5.39393 -1.63645 20.5859 7.75324 34.43683 62.30405 -52.52537 -11.01409 -4.84585 -0.68754 -2.17264 -3.13269 -45.12979 11.23284 2.48356 8.73368 9.51376 -12.39325 10.29098 -12.95384 0.81623 2.64544 3.88039
0.01669 0.96155 0.57219 -214.46401 0 7.51519 7.2123 -3.25522 2.08697 -32.76597 2.41022 5.42659 15.04729 -16.62281 -41.23583 69.78669 84.29258 4.33764 -1.94114 22.08316 9.53186 37.45401 57.54925 -54.07432 -10.74457 -4.50735 0.63047 -3.91748 -5.15193 -48.56054 10.13865 3.27823 11.02471 8.91441 -12.78431 13.49538 -13.05403 1.4798 2.01823 0.54135
0.00626 0.96067 0.56936 -214.38982 0 8.07024 7.28415 -3.48906 2.59253 -31.57344 1.492 4.96477 16.65344 -16.8025 -43.23983 64.62485 83.41959 3.68878 -2.29613 23.48209 11.58338 40.04571 52.44141 -55.79419 -10.25528 -4.40763 2.21164 -5.71577 -6.68368 -52.14627 8.76433 3.73156 12.86463 8.3781 -13.11753 17.05342 -13.33674 2.10946 1.4624 -2.72657
-0.00226 0.95886 0.5676 -214.60665 0 8.83773 7.17193 -3.8356 3.44356 -30.3855 0.18564 4.2264 18.81025 -17.37747 -45.00655 56.88846 82.70736 4.24479 -2.7926 24.62418 14.43583 41.44954 46.34287 -58.15728 -9.06946 -4.99504 4.47591 -7.70211 -6.81911 -56.19324 6.51084 3.26831 13.51718 8.00756 -13.31099 21.61634 -14.16633 2.61278 1.12654 -5.68784
-0.01001 0.95675 0.56622 -214.90945 0 9.65647 6.99043 -4.20592 4.39681 -29.20449 -1.2414 3.40115 21.1136 -18.06423 -46.66434 48.34651 82.05135 5.20322 -3.32843 25.64666 17.52255 42.4226 39.96769 -60.68039 -7.66987 -5.81549 6.98494 -9.71422 -6.45219 -60.34615 4.01554 2.46798 13.68454 7.69796 -13.44696 26.4517 -15.16476 3.07374 0.869 -8.52295
-0.01802 0.95486 0.56462 -215.1523 0 10.41817 6.83892 -4.54515 5.2778 -28.03314 -2.57756 2.63649 23.26719 -18.66134 -48.34051 40.3964 81.38711 5.93785 -3.82028 26.67922 20.40822 43.59805 33.87969 -63.06036 -6.40677 -6.50778 9.35948 -11.64725 -6.30967 -64.35367 1.74472 1.83143 13.99433 7.35663 -13.60525 30.99511 -16.04172 3.54744 0.58092 -11.34673
-0.0264 0.95262 0.56324 -215.48431 0 11.32352 6.69214 -4.96885 6.26798 -26.80209 -4.07422 1.78024 25.78003 -19.41859 -50.15063 31.46183 80.63997 6.84039 -4.42415 27.905 23.7069 44.75117 27.07887 -65.72667 -4.98287 -7.29648 11.84976 -13.87334 -6.19588 -68.80351 -1.01367 1.14771 14.64012 7.03297 -13.77796 36.29045 -17.10774 4.05411 0.26532 -14.50296
-0.03382 0.95105 0.56148 -215.6488 0 11.94148 6.5204 -5.2233 7.05388 -25.70053 -5.26045 1.0952 27.57774 -19.87296 -51.65528 24.39544 80.08176 7.4923 -4.8062 28.69858 26.19583 45.84222 21.7076 -67.83989 -3.84052 -7.93738 14.14517 -15.49207 -5.89512 -72.33257 -2.81733 0.48028 14.47058 6.6879 -13.90736 40.06054 -17.82274 4.48048 0.0294 -16.91113
-0.03875 0.95146 0.55859 -215.35242 0 11.75208 6.28783 -4.99703 7.26354 -24.9392 -5.57968 0.90269 27.34655 -19.43067 -52.33772 22.72476 80.04263 7.33272 -4.52932 28.31499 26.38991 46.9183 20.37087 -68.37213 -3.53547 -8.1307 15.90536 -15.42389 -5.23518 -73.44602 -1.86428 -0.02166 12.14622 6.25424 -13.93413 39.64811 -17.49305 4.68834 -0.02258 -17.4015
-0.04274 0.95257 0.55528 -214.88046 0 11.2719 6.03445 -4.60118 7.26204 -24.31194 -5.57809 0.88597 26.39297 -18.68577 -52.71672 22.95966 80.19137 6.9113 -4.03321 27.50245 25.75983 47.93752 20.48346 -68.34607 -3.51927 -8.16431 17.44688 -14.74305 -4.39414 -73.59836 0.04804 -0.49983 9.02516 5.79922 -13.91885 37.67118 -16.81019 4.81716 0.00678 -17.11925
-0.04716 0.95335 0.55213 -214.47406 0 10.92525 5.79631 -4.2879 7.34864 -23.63356 -5.70899 0.79024 25.78035 -18.10143 -53.23817 22.30079 80.24803 6.624 -3.66182 26.89306 25.50542 48.9487 19.92447 -68.58686 -3.36499 -8.25873 19.04662 -14.34361 -3.61572 -74.08768 1.48218 -1.01554 6.27673 5.3634 -13.92147 36.33963 -16.31088 4.98617 0.01057 -17.10658
-0.05153 0.95417 0.54915 -214.13049 0 10.57387 5.53068 -3.95187 7.47107 -22.91196 -5.89882 0.68823 25.11823 -17.42464 -53.73811 21.7298 80.33382 6.28711 -3.1891 26.24276 25.2525 50.08633 19.40969 -68.77863 -3.23134 -8.40895 20.83187 -13.93233 -2.91391 -75.00145 3.08528 -1.43853 3.44958 4.8902 -13.92794 35.28475 -15.72012 5.13643 -0.03132 -17.42509
-0.0558 0.95508 0.5457 -213.61356 0 10.16351 5.31907 -3.62303 7.46854 -22.3146 -5.89014 0.64156 24.38737 -16.86595 -54.21038 21.43964 80.40401 5.98575 -2.87092 25.58008 24.8004 50.95466 19.15086 -68.93662 -3.12704 -8.40453 22.1718 -13.40028 -2.00239 -74.80262 4.56836 -2.03418 0.62526 4.4883 -13.91619 33.29153 -15.23385 5.3067 0.04056 -16.88348
-0.06006 0.9561 0.54105 -212.65708 0 9.65305 5.25562 -3.35189 7.16205 -22.0072 -5.39314 0.71052 23.62824 -16.71717 -54.69603 21.45966 80.37554 5.84785 -3.06669 24.96489 23.97413 51.07768 19.24747 -69.148 -3.02579 -7.98882 22.36537 -12.68063 -0.68338 -71.75736 5.47896 -3.20123 -2.18463 4.29439 -13.873 28.97221 -15.12116 5.55818 0.40398 -14.05351
-0.06425 0.95718 0.53593 -211.53227 0 9.0944 5.24893 -3.09422 6.73834 -21.82412 -4.71019 0.82845 22.82715 -16.69559 -55.16171 21.70096 80.32642 5.75252 -3.41937 24.35694 22.97939 50.93641 19.55301 -69.34203 -2.94658 -7.42602 22.11138 -11.86151 0.85564 -67.62916 6.23783 -4.52552 -4.92903 4.17167 -13.81148 23.78229 -15.12541 5.83142 0.87924 -10.40368
-0.06847 0.95823 0.53101 -210.48681 0 8.56328 5.22039 -2.83284 6.37498 -21.59723 -4.12408 0.92056 22.05422 -16.60843 -55.62716 21.84393 80.29282 5.63484 -3.67753 23.76154 22.07758 50.92893 19.76163 -69.5366 -2.86305 -6.94491 22.04156 -11.08997 2.38256 -63.99917 7.07191 -5.71665 -7.57441 4.01204 -13.75322 19.06771 -15.07594 6.09065 1.30467 -7.19752
-0.07269 0.95934 0.52612 -209.424 0 7.99902 5.17367 -2.55608 5.97532 -21.32086 -3.47515 1.03377 21.21695 -16.5424 -56.12216 22.04163 80.23992 5.52092 -4.0247 23.08431 21.07833 50.86269 20.027 -69.74266 -2.7652 -6.39635 22.04582 -10.28564 3.56989 -60.30006 7.91396 -7.16377 -10.78165 3.8705 -13.71546 13.96549 -15.01593 6.36478 1.7287 -3.66648
-0.0769 0.96032 0.52107 -208.35869 0 7.49519 5.17951 -2.3159 5.62507 -21.17608 -2.9166 1.11241 20.5142 -16.46804 -56.55367 22.15541 80.21984 5.41269 -4.22829 22.58472 20.25241 50.85526 20.2074 -69.92807 -2.69894 -5.95462 21.79184 -9.53569 5.48324 -56.51286 8.68957 -8.12019 -12.80512 3.709 -13.63048 9.48026 -15.01117 6.61371 2.18124 -0.62469
-0.08109 0.96092 0.51571 -207.33774 0 7.17978 5.30853 -2.18203 5.45071 -21.35702 -2.65832 1.08304 20.18742 -16.32794 -56.82583 21.95672 80.29449 5.3101 -3.98373 22.5774 19.9529 51.0897 20.07455 -70.06164 -2.71114 -5.85095 20.9387 -8.94771 9.61614 -52.64257 9.32528 -7.6411 -11.46353 3.47041 -13.42586 6.95616 -15.12332 6.79146 2.68338 0.83604
-0.08529 0.96138 0.51021 -206.31996 0 6.9267 5.48984 -2.08406 5.32959 -21.6665 -2.49793 1.01669 20.00232 -16.17898 -57.03401 21.66159 80.40202 5.21311 -3.59305 22.75006 19.83659 51.39 19.84684 -70.17746 -2.75354 -5.85922 19.84145 -8.4229 14.42316 -48.7448 9.8929 -6.67119 -8.95011 3.21017 -13.17331 5.08446 -15.28973 6.94286 3.20988 1.77672
-0.08949 0.96193 0.50476 -205.29392 0 6.63986 5.65295 -1.9645 5.17752 -21.92156 -2.29108 0.96642 19.75956 -16.04294 -57.26609 21.4183 80.49424 5.11442 -3.27878 22.84031 19.63618 51.65077 19.67332 -70.30381 -2.78289 -5.81249 18.85403 -7.88102 18.74166 -44.93396 10.4832 -5.95297 -7.04233 2.96305 -12.93895 2.89053 -15.43815 7.10421 3.72648 2.97218
-0.09366 0.9624 0.49937 -204.28716 0 6.3732 5.79565 -1.86637 5.04795 -22.16529 -2.08637 0.91988 19.48579 -15.8727 -57.52018 21.14941 80.5877 5.01294 -2.92673 22.93345 19.43273 51.94281 19.46129 -70.41954 -2.8104 -5.77838 17.85518 -7.28785 23.82804 -40.77289 11.10552 -5.11722 -4.82286 2.70486 -12.71947 0.76633 -15.5638 7.27461 4.24372 4.12294
-0.0979 0.96298 0.49382 -203.24763 0 6.08112 5.99116 -1.7335 4.88793 -22.46008 -1.90229 0.85755 19.31174 -15.77107 -57.71221 20.90871 80.68629 4.91877 -2.61778 23.0629 19.28165 52.18882 19.30396 -70.55255 -2.84854 -5.746 16.82848 -6.81574 27.48347 -37.34591 11.64454 -4.41031 -2.97676 2.46329 -12.45739 -1.32717 -15.74638 7.4199 4.76191 5.22743
